<svg width="87" height="87" viewBox="0 0 85 85" fill="none" xmlns="http://www.w3.org/2000/svg">
<path d="M13.0417 25.6667H48.8125C50.767 25.7041 52.6932 25.1962 54.3752 24.2C56.0572 23.2038 57.4283 21.7587 58.3349 20.0268C59.2414 18.2949 59.6475 16.3446 59.5076 14.3948C59.3677 12.445 58.6873 10.5727 57.5428 8.98791C56.3983 7.40316 54.8348 6.16863 53.0279 5.42279C51.2209 4.67694 49.2419 4.44929 47.3127 4.76535C45.3836 5.08142 43.5807 5.9287 42.1062 7.21217C40.6317 8.49564 39.544 10.1645 38.965 12.0317M4.625 42.5H69.8542C71.8087 42.4626 73.7349 42.9705 75.4169 43.9667C77.0988 44.9629 78.47 46.408 79.3766 48.1399C80.2831 49.8718 80.6892 51.8221 80.5493 53.7719C80.4094 55.7217 79.729 57.594 78.5845 59.1788C77.4399 60.7635 75.8765 61.998 74.0695 62.7439C72.2626 63.4897 70.2835 63.7174 68.3544 63.4013C66.4253 63.0853 64.6224 62.238 63.1479 60.9545C61.6734 59.671 60.5857 58.0021 60.0067 56.135M8.83333 59.3333H31.9792C33.9337 59.2959 35.8599 59.8038 37.5419 60.8C39.2238 61.7962 40.595 63.2413 41.5016 64.9732C42.4081 66.7051 42.8142 68.6554 42.6743 70.6052C42.5344 72.5551 41.854 74.4273 40.7095 76.0121C39.5649 77.5968 38.0015 78.8314 36.1945 79.5772C34.3876 80.3231 32.4085 80.5507 30.4794 80.2347C28.5503 79.9186 26.7474 79.0713 25.2729 77.7878C23.7984 76.5044 22.7107 74.8355 22.1317 72.9683" stroke="#207264" stroke-width="8.41667" stroke-linecap="round" stroke-linejoin="round"/>
</svg>
