<svg width="87" height="87" viewBox="0 0 93 69" fill="none" xmlns="http://www.w3.org/2000/svg">
<path d="M23.3541 68.1667C16.9714 68.1667 11.5188 65.9573 6.99629 61.5386C2.47374 57.1198 0.211058 51.7191 0.208252 45.3365C0.208252 39.8656 1.85652 34.991 5.15304 30.7125C8.44957 26.434 12.7631 23.6986 18.0937 22.5063C19.8471 16.0535 23.3541 10.8281 28.6145 6.83022C33.8749 2.8323 39.8367 0.833344 46.4999 0.833344C54.7062 0.833344 61.6682 3.69221 67.3859 9.40993C73.1036 15.1277 75.9611 22.0882 75.9583 30.2917C80.7978 30.8528 84.814 32.9401 88.0067 36.5537C91.1994 40.1672 92.7944 44.3924 92.7916 49.2292C92.7916 54.4896 90.9511 58.9617 87.2703 62.6453C83.5894 66.329 79.1173 68.1695 73.8541 68.1667H23.3541ZM23.3541 59.75H73.8541C76.7999 59.75 79.2898 58.733 81.3239 56.699C83.3579 54.6649 84.3749 52.175 84.3749 49.2292C84.3749 46.2833 83.3579 43.7934 81.3239 41.7594C79.2898 39.7254 76.7999 38.7083 73.8541 38.7083H67.5416V30.2917C67.5416 24.4701 65.4893 19.5071 61.3848 15.4026C57.2803 11.2981 52.3186 9.2472 46.4999 9.25001C40.6812 9.25282 35.7196 11.3051 31.615 15.4068C27.5105 19.5085 25.4583 24.4701 25.4583 30.2917H23.3541C19.286 30.2917 15.8142 31.7295 12.9385 34.6052C10.0628 37.4809 8.62492 40.9528 8.62492 45.0208C8.62492 49.0889 10.0628 52.5608 12.9385 55.4365C15.8142 58.3122 19.286 59.75 23.3541 59.75Z" fill="#227066"/>
</svg>
