<svg width="87" height="87" viewBox="0 0 93 93" fill="none" xmlns="http://www.w3.org/2000/svg">
<path d="M42.2916 17.0417V0.208344H50.7083V17.0417H42.2916ZM70.277 28.6146L64.4905 22.8281L76.2739 10.7292L82.1656 16.7261L70.277 28.6146ZM75.9583 50.7083V42.2917H92.7916V50.7083H75.9583ZM42.2916 92.7917V75.9583H50.7083V92.7917H42.2916ZM22.7228 28.4042L10.7291 16.7261L16.726 10.8344L28.6145 22.7229L22.7228 28.4042ZM76.1687 82.2708L64.4905 70.1719L70.1718 64.4906L82.1656 76.0636L76.1687 82.2708ZM0.208252 50.7083V42.2917H17.0416V50.7083H0.208252ZM16.726 82.2708L10.8343 76.274L22.6176 64.4906L25.6687 67.3313L28.7197 70.2771L16.726 82.2708ZM46.4999 71.75C39.486 71.75 33.5242 69.2952 28.6145 64.3854C23.7048 59.4757 21.2499 53.5139 21.2499 46.5C21.2499 39.4861 23.7048 33.5243 28.6145 28.6146C33.5242 23.7049 39.486 21.25 46.4999 21.25C53.5138 21.25 59.4756 23.7049 64.3853 28.6146C69.2951 33.5243 71.7499 39.4861 71.7499 46.5C71.7499 53.5139 69.2951 59.4757 64.3853 64.3854C59.4756 69.2952 53.5138 71.75 46.4999 71.75Z" fill="#207264"/>
</svg>
