<svg width="87" height="87" viewBox="0 0 89 89" fill="none" xmlns="http://www.w3.org/2000/svg">
<path d="M57.125 25.5625H79.2188V31.875H57.125V25.5625ZM57.125 44.5H88.6875V50.8125H57.125V44.5ZM57.125 63.4375H79.2188V69.75H57.125V63.4375ZM25.5625 57.7057V16.0938H19.25V57.7057C17.1441 58.4503 15.3692 59.9153 14.2391 61.8419C13.1089 63.7686 12.6962 66.0327 13.0739 68.2342C13.4516 70.4356 14.5954 72.4327 16.3032 73.8724C18.0109 75.3121 20.1726 76.1017 22.4063 76.1017C24.6399 76.1017 26.8016 75.3121 28.5094 73.8724C30.2171 72.4327 31.3609 70.4356 31.7387 68.2342C32.1164 66.0327 31.7037 63.7686 30.5735 61.8419C29.4433 59.9153 27.6684 58.4503 25.5625 57.7057Z" fill="#227066"/>
<path d="M88.6875 6.62499H34.9492C32.9688 3.97597 30.2037 2.01869 27.0471 1.03144C23.8904 0.0441959 20.5029 0.0772376 17.3661 1.12587C14.2292 2.1745 11.5029 4.18534 9.57455 6.87249C7.64623 9.55964 6.61414 12.7863 6.62501 16.0937V51.1597C3.58027 54.2672 1.52075 58.2045 0.704682 62.4778C-0.111383 66.7511 0.35234 71.1702 2.0377 75.181C3.72307 79.1918 6.55505 82.6158 10.1785 85.0236C13.802 87.4314 18.0557 88.7158 22.4063 88.7158C26.7568 88.7158 31.0105 87.4314 34.634 85.0236C38.2575 82.6158 41.0895 79.1918 42.7748 75.181C44.4602 71.1702 44.9239 66.7511 44.1078 62.4778C43.2918 58.2045 41.2322 54.2672 38.1875 51.1597V16.0937C38.1875 15.0336 38.0807 13.9762 37.8687 12.9375H88.6875V6.62499ZM22.4063 82.375C19.2113 82.3796 16.0904 81.413 13.4574 79.6033C10.8244 77.7937 8.80358 75.2264 7.66295 72.242C6.52232 69.2576 6.31573 65.997 7.07058 62.8925C7.82543 59.788 9.50606 56.9863 11.8896 54.8588L12.9375 53.9151V16.0937C12.9375 13.5825 13.9351 11.1741 15.7108 9.39833C17.4866 7.62259 19.895 6.62499 22.4063 6.62499C24.9175 6.62499 27.3259 7.62259 29.1017 9.39833C30.8774 11.1741 31.875 13.5825 31.875 16.0937V53.9151L32.9229 54.8588C35.3065 56.9863 36.9871 59.788 37.7419 62.8925C38.4968 65.997 38.2902 69.2576 37.1496 72.242C36.0089 75.2264 33.9881 77.7937 31.3551 79.6033C28.7221 81.413 25.6012 82.3796 22.4063 82.375Z" fill="#227066"/>
</svg>
